<svg xmlns="http://www.w3.org/2000/svg" viewBox="0 0 1920 1080" width="1920" height="1080">
  <defs>
    <linearGradient id="g1" x1="0%" y1="0%" x2="100%" y2="100%">
      <stop offset="0%" style="stop-color:#071e14"/>
      <stop offset="50%" style="stop-color:#1a4f35"/>
      <stop offset="100%" style="stop-color:#040f0a"/>
    </linearGradient>
    <linearGradient id="g2" x1="0%" y1="0%" x2="0%" y2="100%">
      <stop offset="0%" style="stop-color:#4caf7d;stop-opacity:0.1"/>
      <stop offset="100%" style="stop-color:#4caf7d;stop-opacity:0"/>
    </linearGradient>
  </defs>
  <rect width="1920" height="1080" fill="url(#g1)"/>
  <circle cx="1400" cy="400" r="300" fill="rgba(76,175,125,0.05)"/>
  <circle cx="1400" cy="400" r="200" fill="rgba(76,175,125,0.05)"/>
  <circle cx="1400" cy="400" r="100" fill="rgba(76,175,125,0.07)"/>
  <rect x="1370" y="260" width="60" height="280" rx="8" fill="rgba(76,175,125,0.12)"/>
  <rect x="1260" y="370" width="280" height="60" rx="8" fill="rgba(76,175,125,0.12)"/>
  <g fill="rgba(76,175,125,0.08)">
    <circle cx="200" cy="200" r="3"/> <circle cx="260" cy="200" r="3"/> <circle cx="320" cy="200" r="3"/>
    <circle cx="200" cy="260" r="3"/> <circle cx="260" cy="260" r="3"/> <circle cx="320" cy="260" r="3"/>
    <circle cx="200" cy="320" r="3"/> <circle cx="260" cy="320" r="3"/> <circle cx="320" cy="320" r="3"/>
    <circle cx="200" cy="380" r="3"/> <circle cx="260" cy="380" r="3"/> <circle cx="320" cy="380" r="3"/>
    <circle cx="200" cy="440" r="3"/> <circle cx="260" cy="440" r="3"/> <circle cx="320" cy="440" r="3"/>
    <circle cx="200" cy="500" r="3"/> <circle cx="260" cy="500" r="3"/> <circle cx="320" cy="500" r="3"/>
  </g>
  <rect x="0" y="0" width="1920" height="4" fill="#4caf7d" opacity="0.7"/>
  <rect x="0" y="0" width="1920" height="500" fill="url(#g2)"/>
  <text x="100" y="900" font-family="Arial,sans-serif" font-size="80" font-weight="900" fill="rgba(255,255,255,0.04)" letter-spacing="8">KV 02</text>
  <text x="100" y="955" font-family="Arial,sans-serif" font-size="22" fill="rgba(76,175,125,0.5)">1920 × 1080  ·  메인 비주얼 슬라이드 2</text>
</svg>
